<?xml version="1.0" encoding="UTF-8"?>
<svg id="Layer_1" xmlns="http://www.w3.org/2000/svg" version="1.1" viewBox="0 0 1366 768">
  <!-- Generator: Adobe Illustrator 29.1.0, SVG Export Plug-In . SVG Version: 2.1.0 Build 142)  -->
  <defs>
    <style>
      .st0 {
        fill: #cc7d63;
      }

      .st0, .st1, .st2, .st3 {
        stroke-miterlimit: 10;
        stroke-width: 3px;
      }

      .st0, .st1, .st2, .st4 {
        stroke: #cc7d63;
      }

      .st1 {
        fill: #fff;
      }

      .st2, .st3, .st4 {
        fill: none;
      }

      .st3 {
        stroke: #fff;
      }

      .st4 {
        stroke-miterlimit: 10;
        stroke-width: 3px;
      }
    </style>
  </defs>
  <path class="st1" d="M786.5,576.4c51.5-3.4,303.4-24.4,66.4-97.6,0,0,48.3-33.8-115.6-76.1,0,0-92.8-139.9-248.5-8.5,0,0-104.2,2.7-101.4,39.6,0,0-104.9,22.8-74.4,97.4,0,0-36,85.6,129.7,74.5,0,0,38.2,44.3,161.3,19.4,0,0,40.6,2.2,82.5-1.9"/>
  <path class="st0" d="M754.7,479v-.4c0,0-273.5-33.4-273.5-33.4-33.2,10-41,38.9-50.7,64l266,32.5c8-24.9,30.3-47.7,58.2-62.7h0Z"/>
  <path class="st0" d="M713.7,598c-18-12.6-27.2-29-29.2-46.6l-253.4-32.4c-3.5,18.3,5.6,38.6,28.2,46.6l254.4,32.5h0c0-.1,0-.1,0-.1Z"/>
  <ellipse class="st4" cx="732.6" cy="548.5" rx="49.3" ry="27.9" transform="translate(112.1 1221.3) rotate(-84.1)"/>
  <path class="st2" d="M740.6,511.5c-2.9-.2-5.8.9-8.4,3.2,6.2,2.5,10.8,14.2,10.8,28.2s-4.7,25.8-11,28.2c.6.2,1.3.3,2,.4,9.1.7,17.9-12.1,19.7-28.7,1.8-16.5-4-30.6-13.1-31.3h0Z"/>
  <path class="st3" d="M772.8,501.4c-2-10.1-9.8-17.1-17.6-15.6-4,.8-7.2,3.6-9,7.6,8.5,6.1,15.9,14.7,20.5,27.1,5-3.5,7.7-11.1,6.1-19.1h0Z"/>
  <path class="st1" d="M609,571.9s-54.8-49.6-139.7,0c0,0-58.5,2.3-56.1,15.6,0,0-58.5,9.6-39.9,36.2,0,0-18.6,31.5,74.2,25.4,0,0,22.3,15.6,90.9,5,0,0,99.3,1.3,96.5-19.6,0,0,189.3-10.3,40.4-36.5,0,0,26.5-12.8-66.3-26.2h0Z"/>
</svg>