<?xml version="1.0" encoding="UTF-8"?>
<svg id="Layer_1" xmlns="http://www.w3.org/2000/svg" version="1.1" viewBox="0 0 1366 768">
  <!-- Generator: Adobe Illustrator 29.1.0, SVG Export Plug-In . SVG Version: 2.1.0 Build 142)  -->
  <defs>
    <style>
      .st0 {
        fill: none;
      }

      .st0, .st1, .st2 {
        stroke: #617f8d;
        stroke-miterlimit: 10;
        stroke-width: 3px;
      }

      .st1 {
        fill: #617f8d;
      }

      .st2 {
        fill: #fff;
      }
    </style>
  </defs>
  <path class="st2" d="M786.53,576.44c51.49-3.4,303.36-24.38,66.44-97.57,0,0,48.26-33.77-115.61-76.13,0,0-92.78-139.92-248.51-8.45,0,0-104.24,2.7-101.36,39.6,0,0-104.92,22.81-74.4,97.44,0,0-35.97,85.56,129.72,74.53,0,0,38.17,44.34,161.35,19.37,0,0,40.59,2.18,82.52-1.92"/>
  <path class="st1" d="M754.68,479l.09-.38-273.61-33.4c-33.22,9.97-41.02,38.93-50.68,63.97l265.98,32.47c8.03-24.91,30.27-47.69,58.22-62.66Z"/>
  <path class="st1" d="M713.67,597.96c-18.05-12.62-27.19-28.98-29.18-46.62l-253.38-32.41c-3.48,18.33,5.58,38.64,28.17,46.62l254.37,32.53.03-.12Z"/>
  <ellipse class="st0" cx="732.5" cy="548.5" rx="49.31" ry="27.92" transform="translate(112.13 1221.22) rotate(-84.14)"/>
  <path class="st0" d="M740.59,511.53c-2.91-.23-5.78.93-8.42,3.16,6.17,2.52,10.83,14.17,10.83,28.16s-4.73,25.82-10.97,28.22c.64.2,1.3.34,1.98.39,9.06.73,17.87-12.1,19.69-28.65,1.82-16.55-4.05-30.56-13.11-31.29Z"/>
  <path class="st0" d="M772.78,501.42c-1.95-10.1-9.82-17.08-17.57-15.59-3.99.77-7.15,3.64-9.04,7.61,8.47,6.13,15.86,14.73,20.49,27.08,5.02-3.54,7.66-11.09,6.11-19.1Z"/>
  <path class="st2" d="M608.99,571.86s-54.75-49.58-139.66,0c0,0-58.46,2.26-56.14,15.6,0,0-58.46,9.56-39.9,36.24,0,0-18.56,31.46,74.24,25.42,0,0,22.27,15.6,90.94,5.03,0,0,99.29,1.26,96.51-19.63,0,0,189.3-10.32,40.37-36.49,0,0,26.45-12.83-66.35-26.17Z"/>
</svg>